HIERARCHY
ROOT ui
{
	 OFFSET 0 0 0
	 CHANNELS 3 XPosition YPosition Z Position
	 EndSite
	 {
	 OFFSET 0 -1 0
	 }
}
ROOT li
{
	 OFFSET 0 0 0
	 CHANNELS 3 XPosition YPosition Z Position
	 EndSite
	 {
	 OFFSET 0 -1 0
	 }
}
ROOT ul
{
	 OFFSET 0 0 0
	 CHANNELS 3 XPosition YPosition Z Position
	 EndSite
	 {
	 OFFSET 0 -1 0
	 }
}
ROOT ll
{
	 OFFSET 0 0 0
	 CHANNELS 3 XPosition YPosition Z Position
	 EndSite
	 {
	 OFFSET 0 -1 0
	 }
}
ROOT tt
{
	 OFFSET 0 0 0
	 CHANNELS 3 XPosition YPosition Z Position
	 EndSite
	 {
	 OFFSET 0 -1 0
	 }
}
ROOT tb
{
	 OFFSET 0 0 0
	 CHANNELS 3 XPosition YPosition Z Position
	 EndSite
	 {
	 OFFSET 0 -1 0
	 }
}
ROOT td
{
	 OFFSET 0 0 0
	 CHANNELS 3 XPosition YPosition Z Position
	 EndSite
	 {
	 OFFSET 0 -1 0
	 }
}
ROOT v
{
	 OFFSET 0 0 0
	 CHANNELS 3 XPosition YPosition Z Position
	 EndSite
	 {
	 OFFSET 0 -1 0
	 }
}
ROOT bn
{
	 OFFSET 0 0 0
	 CHANNELS 3 XPosition YPosition Z Position
	 EndSite
	 {
	 OFFSET 0 -1 0
	 }
}
MOTION
Frames: 24
Frame Time: 0.002
-0.001819682002067566	-0.0011783390045166015	0		0.4754081420898438	-2.3653369140625	0		-1.1826580810546874	0.07923041534423828	0		-0.8601224975585937	-2.508417236328125	0		1.5005634765625	-0.59893896484375	0		3.0981376953125	-0.09011405181884766	0		4.51390625	0.1276581802368164	0		5.6204599609375	0.18252340698242187	0		-0.28197958374023435	5.8962197265625	0		
-0.029875919342041014	0.00490838623046875	0		0.47723394775390626	-2.365745361328125	0		-1.1808165283203125	0.07883258819580079	0		-0.8362512817382812	-2.506178955078125	0		1.499351806640625	-0.6023045043945312	0		3.089864501953125	-0.09737431335449219	0		4.515748046875	0.12722346496582032	0		5.617611328125	0.19922824096679687	0		-0.28106729125976565	5.89783203125	0		
-0.003094789981842041	0.003088797092437744	0		0.4530721435546875	-2.36273046875	0		-1.1790150146484375	0.07843143463134766	0		-0.8585457763671875	-2.511187255859375	0		1.50419775390625	-0.5997730102539063	0		3.086796875	-0.08972241973876953	0		4.5175498046875	0.1267848663330078	0		5.61889453125	0.1984580078125	0		-0.2802110290527344	5.89844140625	0		
-0.01836793899536133	0.001963384985923767	0		0.46773056030273436	-2.367351806640625	0		-1.1722249755859375	0.08095112609863281	0		-0.850722900390625	-2.505686279296875	0		1.509000244140625	-0.5962376098632812	0		3.083291259765625	-0.10506293487548828	0		4.52135693359375	0.13031756591796875	0		5.6242734375	0.17676841735839843	0		-0.2481405792236328	5.9155419921875	0		
-0.009588912963867187	0.008452316284179688	0		0.4645959777832031	-2.354669189453125	0		-1.166494384765625	0.08449661254882812	0		-0.8470402221679687	-2.504109619140625	0		1.5137269287109374	-0.59269140625	0		3.109264892578125	-0.08687356567382812	0		4.53402099609375	0.1297149200439453	0		5.63136572265625	0.20520697021484374	0		-0.2454575653076172	5.91413232421875	0		
-0.0159957218170166	0.009204147338867187	0		0.5119553527832031	-2.367806640625	0		-1.168983642578125	0.08018943786621094	0		-0.8254641723632813	-2.503814208984375	0		1.5091685791015625	-0.6009793701171875	0		3.081662841796875	-0.09779108428955079	0		4.52663134765625	0.13145892333984374	0		5.626607421875	0.17878028869628906	0		-0.2741426696777344	5.89625	0		
-0.016699718475341796	-0.0021220850944519043	0		0.4594774169921875	-2.36428125	0		-1.1675064697265625	0.0798343505859375	0		-0.8171815185546875	-2.51528466796875	0		1.5106424560546876	-0.601347412109375	0		3.093253173828125	-0.09133224487304688	0		4.53499267578125	0.12396206665039063	0		5.62766064453125	0.17811004638671876	0		-0.2726374816894531	5.895890625	0		
-0.02024464988708496	0.002620315074920654	0		0.51274951171875	-2.370478271484375	0		-1.166134033203125	0.07950023651123046	0		-0.8507830200195312	-2.513044189453125	0		1.5120118408203125	-0.6016934814453125	0		3.0845107421875	-0.09851976776123048	0		4.52538330078125	0.12478349304199218	0		5.62863818359375	0.17748025512695312	0		-0.27123907470703124	5.895552734375	0		
-0.0189788818359375	0.002304124116897583	0		0.4490799560546875	-2.365726806640625	0		-1.1608026123046875	0.08312246704101563	0		-0.8454625244140626	-2.50942333984375	0		1.5132750244140625	-0.6020161743164063	0		3.106004150390625	-0.08518043518066407	0		4.530748046875	0.13038134765625	0		5.629541015625	0.1768924865722656	0		-0.2689814147949219	5.89322119140625	0		
0.01919452476501465	0.0024024760723114014	0		0.5301224365234375	-2.373337646484375	0		-1.1596402587890624	0.08283524322509765	0		-0.8422782592773438	-2.5077451171875	0		1.5205654296875	-0.594414306640625	0		3.090019775390625	-0.09420391082763672	0		4.5360087890625	0.13600399780273437	0		5.6333046875	0.18834225463867188	0		-0.26876214599609377	5.8949462890625	0		
-0.009656105041503906	0.007628990173339844	0		0.46633282470703125	-2.363537109375	0		-1.1585770263671875	0.0825728530883789	0		-0.8103451538085937	-2.5155185546875	0		1.515494873046875	-0.602587646484375	0		3.113095703125	-0.0938462905883789	0		4.53784130859375	0.12170383453369141	0		5.62696533203125	0.19331547546386718	0		-0.2676752624511719	5.8946806640625	0		
0.009194847106933593	9.075699746608734E-5	0		0.5171697387695312	-2.371604736328125	0		-1.16167333984375	0.07840154266357421	0		-0.8463651733398437	-2.514148193359375	0		1.516461181640625	-0.6028363647460937	0		3.10804833984375	-0.09500248718261718	0		4.533943359375	0.12952410888671875	0		5.6318173828125	0.17538804626464843	0		-0.26668243408203124	5.89443896484375	0		
-0.009989267349243163	-0.003798042058944702	0		0.4759788513183594	-2.3751328125	0		-1.1607939453125	0.07818727111816406	0		-0.8105341186523437	-2.5169404296875	0		1.517337890625	-0.6030616455078125	0		3.11494287109375	-0.09433341217041015	0		4.53482275390625	0.129286376953125	0		5.62532421875	0.17698458862304686	0		-0.265779052734375	5.89422119140625	0		
0.010867848396301269	-3.253990113735199E-4	0		0.47984494018554685	-2.370382080078125	0		-1.144100830078125	0.07173200988769532	0		-0.8776259765625	-2.509013671875	0		1.5270784912109374	-0.6064130249023437	0		3.090640625	-0.10013023376464844	0		4.52948583984375	0.12117059326171875	0		5.6258896484375	0.17660403442382813	0		-0.26399383544921873	5.8920087890625	0		
0.0016810369491577148	0.005662470817565918	0		0.48258065795898436	-2.368593505859375	0		-1.147106689453125	0.08862420654296875	0		-0.8039664916992187	-2.51239013671875	0		1.524970703125	-0.595547607421875	0		3.12053076171875	-0.08979918670654297	0		4.53352880859375	0.14092333984375	0		5.63226806640625	0.20024777221679688	0		-0.23393052673339843	5.9113525390625	0		
0.012215889930725098	-6.584939956665039E-4	0		0.470273681640625	-2.364538330078125	0		-1.1545855712890625	0.08160519409179688	0		-0.8433858642578125	-2.514883056640625	0		1.5194722900390625	-0.6036106567382813	0		3.086104248046875	-0.09339098358154296	0		4.53618115234375	0.14171443176269533	0		5.63397021484375	0.17393280029296876	0		-0.2635634765625	5.8936943359375	0		
-0.012204562187194824	6.148620247840882E-4	0		0.49473727416992186	-2.370074951171875	0		-1.154025634765625	0.08147113800048827	0		-0.7847955322265625	-2.512976318359375	0		1.520029296875	-0.6037562866210937	0		3.102661376953125	-0.09380750274658203	0		4.5375263671875	0.12854095458984374	0		5.6302080078125	0.19111955261230468	0		-0.2639616394042969	5.89457275390625	0		
-0.006802134990692139	-0.004590319156646728	0		0.4791150817871094	-2.375935546875	0		-1.15353955078125	0.08135310363769531	0		-0.84339599609375	-2.517121337890625	0		1.5205120849609375	-0.60388671875	0		3.108013671875	-0.10202669525146485	0		4.5380126953125	0.12839657592773437	0		5.63471533203125	0.17339273071289063	0		-0.26246536254882813	5.89343408203125	0		
-0.006388058185577392	-0.0046997108459472655	0		0.4805666198730469	-2.373064453125	0		-1.145010498046875	0.08811642456054687	0		-0.8419617309570312	-2.5152431640625	0		1.5209232177734375	-0.6040038452148437	0		3.107790771484375	-0.08013828277587891	0		4.53152734375	0.13437904357910158	0		5.6308251953125	0.18716453552246093	0		-0.26202151489257813	5.893326171875	0		
-7.943519949913025E-4	0.010118985176086425	0		0.4849656066894531	-2.36923046875	0		-1.140597900390625	0.0919594497680664	0		-0.8484298095703126	-2.50322119140625	0		1.5243321533203125	-0.6001590576171875	0		3.0937919921875	-0.10101805114746094	0		4.54287353515625	0.13407553100585937	0		5.63525634765625	0.1729345703125	0		-0.26164227294921877	5.89323095703125	0		
-0.005756937980651856	-0.0048813409805297855	0		0.5081169738769531	-2.376697509765625	0		-1.14844384765625	0.08401467132568359	0		-0.8063975830078125	-2.5179931640625	0		1.52154736328125	-0.6042031860351562	0		3.104190185546875	-0.0942880630493164	0		4.54315869140625	0.1339629364013672	0		5.6383935546875	0.18472320556640626	0		-0.2603551025390625	5.89113134765625	0		
-0.010444595336914062	1.2602099776268006E-4	0		0.4704842834472656	-2.3671484375	0		-1.14821435546875	0.08394760131835938	0		-0.8181008911132812	-2.512864990234375	0		1.51872314453125	-0.6072379150390625	0		3.104418701171875	-0.09438323211669922	0		4.5392900390625	0.12792520141601563	0		5.63146044921875	0.190005859375	0		-0.2620372619628906	5.8940908203125	0		
-0.010263056755065917	6.035299971699715E-5	0		0.5064621276855469	-2.3788115234375	0		-1.152081298828125	0.08095658874511719	0		-0.810087158203125	-2.522055908203125	0		1.518900390625	-0.6073143920898437	0		3.083734619140625	-0.08612479400634766	0		4.53947265625	0.12782721710205078	0		5.628630859375	0.17437060546875	0		-0.26181387329101563	5.89402734375	0		
0.0238429012298584	-0.00255999493598938	0		0.46557705688476564	-2.37919482421875	0		-1.139756591796875	0.09170706939697265	0		-0.8408588256835937	-2.515595703125	0		1.5220887451171874	-0.6044339599609375	0		3.109609375	-0.10263407135009765	0		4.53271728515625	0.1338500518798828	0		5.64001220703125	0.1547127380371094	0		-0.25967581176757815	5.8909384765625	0		
